<?xml version="1.0" encoding="UTF-8" standalone="no"?>
<!-- Generator: Adobe Illustrator 22.1.0, SVG Export Plug-In . SVG Version: 6.00 Build 0)  -->

<svg
   version="1.1"
   id="Layer_1"
   x="0px"
   y="0px"
   viewBox="0 0 1920 1080"
   xml:space="preserve"
   sodipodi:docname="designer.svg"
   width="1920"
   height="1080"
   inkscape:version="1.3.2 (091e20e, 2023-11-25, custom)"
   xmlns:inkscape="http://www.inkscape.org/namespaces/inkscape"
   xmlns:sodipodi="http://sodipodi.sourceforge.net/DTD/sodipodi-0.dtd"
   xmlns="http://www.w3.org/2000/svg"
   xmlns:svg="http://www.w3.org/2000/svg"><defs
   id="defs23"><clipPath
     clipPathUnits="userSpaceOnUse"
     id="clipPath248"><path
       style="fill:#000000;fill-opacity:1;stroke:#000000;stroke-width:9.15859;stroke-linecap:round;stroke-linejoin:round"
       d="M 1704.7709,788.98539 C 1331.1537,1448.3535 1247.4576,352.44874 672.06163,1024.3853 373.56274,1372.9672 -468.34752,-184.75068 358.32132,23.919699 708.90352,112.41479 853.31268,294.78954 1474.0396,50.578876 1637.8553,-13.870593 2225.223,-129.51998 1704.7709,788.98539 Z"
       id="path248"
       sodipodi:nodetypes="sssss" /></clipPath></defs><sodipodi:namedview
   id="namedview23"
   pagecolor="#ffffff"
   bordercolor="#000000"
   borderopacity="0.25"
   inkscape:showpageshadow="2"
   inkscape:pageopacity="0.0"
   inkscape:pagecheckerboard="0"
   inkscape:deskcolor="#d1d1d1"
   inkscape:zoom="0.25"
   inkscape:cx="922"
   inkscape:cy="590"
   inkscape:window-width="1920"
   inkscape:window-height="991"
   inkscape:window-x="-9"
   inkscape:window-y="-9"
   inkscape:window-maximized="1"
   inkscape:current-layer="Layer_1" />
<style
   type="text/css"
   id="style1">
	.st0{fill:#3730C4;}
	.st1{fill-rule:evenodd;clip-rule:evenodd;fill:#71ABB1;}
	.st2{fill-rule:evenodd;clip-rule:evenodd;fill:#5C8B8F;}
	.st3{fill-rule:evenodd;clip-rule:evenodd;fill:#C04049;}
	.st4{fill-rule:evenodd;clip-rule:evenodd;fill:#F48D97;}
	.st5{fill-rule:evenodd;clip-rule:evenodd;fill:#F6A2AA;}
	.st6{fill-rule:evenodd;clip-rule:evenodd;fill:#F2727E;}
	.st7{fill-rule:evenodd;clip-rule:evenodd;fill:#03386E;}
	.st8{fill-rule:evenodd;clip-rule:evenodd;fill:#869EB9;}
	.st9{fill-rule:evenodd;clip-rule:evenodd;fill:#9BAEC4;}
	.st10{fill-rule:evenodd;clip-rule:evenodd;fill:#1C4C7D;}
	.st11{fill-rule:evenodd;clip-rule:evenodd;fill:#7993B1;}
	.st12{fill-rule:evenodd;clip-rule:evenodd;fill:#1AB64D;}
	.st13{fill-rule:evenodd;clip-rule:evenodd;fill:#FFFFFF;}
	.st14{fill:#F48D97;}
	.st15{fill:#F2727E;}
	.st16{fill:#C04049;}
</style>

<g
   id="g248"><path
     style="fill:#000000;fill-opacity:1;stroke:#000000;stroke-width:9.05894;stroke-linecap:round;stroke-linejoin:round"
     d="M 1696.6614,786.2748 C 1327.1091,1438.4691 1244.3236,354.48762 675.1878,1019.1136 379.93653,1363.903 -452.81378,-176.86712 364.86096,29.532949 711.62886,117.06522 854.46691,297.45576 1468.4404,55.902076 1630.4737,-7.846186 2211.4509,-122.23732 1696.6614,786.2748 Z"
     id="path24"
     sodipodi:nodetypes="sssss" /><g
     id="g25"
     clip-path="url(#clipPath248)"
     transform="matrix(0.96296266,0,0,0.96296266,35.555908,20)"><rect
       x="0"
       class="st0"
       width="1920"
       height="1080"
       id="rect1"
       y="0"
       style="stroke-width:2.88" /><g
       id="g24"
       transform="matrix(3.235815,0,0,3.235815,140.36804,-308.7543)"
       style="display:inline"><g
         id="Cloud_Services_2_">
	<g
   id="Tower">
		<path
   class="st1"
   d="m 392.6,225.6 v 28.9 h 14.1 l -4.9,-28.9 z M 390.7,191 V 165 H 384 v 26 h -0.1 c -9.5,0 -17.3,7.8 -17.3,17.3 v 5.9 c -1.6,0.7 -2.9,2.1 -3.2,4 l -6.1,36.4 h -6.4 c -2.6,0 -4.8,2.1 -4.8,4.7 v 0 c 0,2.6 2.1,4.8 4.8,4.8 h 4.9 l -3.8,22.6 h -11.3 c -2.6,0 -4.8,2.1 -4.8,4.8 v 0 c 0,2.6 2.1,4.8 4.8,4.8 h 9.7 l -3.8,22.5 h -16.4 c -2.6,0 -4.8,2.1 -4.8,4.8 v 0 c 0,2.6 2.1,4.8 4.8,4.8 H 345 l -3.8,22.5 h -20 c -2.6,0 -4.8,2.1 -4.8,4.8 v 0 c 0,2.6 2.1,4.8 4.8,4.8 h 18.4 l -4.2,25.1 c -0.5,2.9 1.5,5.6 4.3,6.1 v 0 c 2.9,0.5 5.6,-1.5 6.1,-4.3 l 4.5,-26.8 h 31.9 v 27.1 c 0,2.9 2.4,5.2 5.3,5.2 v 0 c 2.9,0 5.2,-2.4 5.2,-5.2 v -27.1 h 31.9 l 4.5,26.8 c 0.5,2.9 3.2,4.8 6.1,4.3 v 0 c 2.8,-0.5 4.8,-3.2 4.3,-6.1 l -4.2,-25.1 h 18.4 c 2.6,0 4.8,-2.1 4.8,-4.8 v 0 c 0,-2.6 -2.1,-4.8 -4.8,-4.8 h -20 l -3.8,-22.5 h 14.8 c 2.6,0 4.8,-2.1 4.8,-4.8 v 0 c 0,-2.6 -2.1,-4.8 -4.8,-4.8 h -16.4 l -3.8,-22.5 h 9.7 c 2.6,0 4.8,-2.1 4.8,-4.8 v 0 c 0,-2.6 -2.1,-4.8 -4.8,-4.8 h -11.3 l -3.8,-22.6 h 4.9 c 2.6,0 4.8,-2.1 4.8,-4.8 v 0 c 0,-2.6 -2.1,-4.7 -4.8,-4.7 h -6.4 l -6.1,-36.4 c -0.3,-1.8 -1.6,-3.3 -3.2,-4 v -5.9 C 408,198.8 400.3,191 390.7,191 Z m -17.8,34.6 -4.9,28.9 h 14.1 v -28.9 z m 50,125.1 -3.8,-22.5 h -26.5 v 22.5 z m -40.8,0 v -22.5 h -26.5 l -3.8,22.5 z m 35.4,-32 -3.8,-22.5 h -21.1 v 22.5 z m -35.4,0 V 296.2 H 361 l -3.8,22.5 z m 30,-32.1 -3.8,-22.6 h -15.7 v 22.6 z m -30,0 V 264 h -15.7 l -3.8,22.6 z"
   id="path1" />
		<path
   class="st2"
   d="m 392.6,225.6 v 28.9 h 14.1 l -4.9,-28.9 z m -5.5,167 V 164.9 h 3.6 v 26 h 0.1 c 9.5,0 17.3,7.8 17.3,17.3 v 5.9 c 1.6,0.7 2.9,2.1 3.2,4 l 6.1,36.4 h 6.4 c 2.6,0 4.8,2.1 4.8,4.7 v 0 c 0,2.6 -2.1,4.8 -4.8,4.8 h -4.9 l 3.8,22.6 H 434 c 2.6,0 4.8,2.1 4.8,4.8 v 0 c 0,2.6 -2.1,4.8 -4.8,4.8 h -9.7 l 3.8,22.5 h 16.4 c 2.6,0 4.8,2.1 4.8,4.8 v 0 c 0,2.6 -2.1,4.8 -4.8,4.8 h -14.8 l 3.8,22.5 h 20 c 2.6,0 4.8,2.1 4.8,4.8 v 0 c 0,2.6 -2.1,4.8 -4.8,4.8 h -18.4 l 4.2,25.1 c 0.5,2.9 -1.5,5.6 -4.3,6.1 v 0 c -2.9,0.5 -5.6,-1.5 -6.1,-4.3 l -4.5,-26.8 h -31.9 v 27.1 c 0,2.9 -2.4,5.2 -5.2,5.2 v 0 c -0.1,-0.2 -0.1,-0.2 -0.2,-0.2 z m 35.8,-41.9 -3.8,-22.5 h -26.5 v 22.5 z m -5.4,-32 -3.8,-22.5 h -21.1 v 22.5 z m -5.4,-32.1 -3.8,-22.6 h -15.7 v 22.6 z"
   id="path2" />
		<path
   class="st1"
   d="m 387.1,159.1 c 4.6,0 8.3,-3.7 8.3,-8.3 0,-4.6 -3.7,-8.4 -8.3,-8.4 -4.6,0 -8.4,3.8 -8.4,8.4 0,4.5 3.8,8.3 8.4,8.3 z"
   id="path3" />
		<path
   class="st2"
   d="m 387.1,142.4 c 4.6,0 8.3,3.7 8.3,8.4 0,4.6 -3.7,8.3 -8.3,8.3 z"
   id="path4" />
	</g>
	<g
   id="Phone">
		<path
   class="st3"
   d="m 358.2,297.5 h 48 c 3,0 5.5,2.5 5.5,5.5 v 84.3 c 0,3 -2.5,5.5 -5.5,5.5 h -48 c -3,0 -5.5,-2.5 -5.5,-5.5 V 303 c 0,-3 2.5,-5.5 5.5,-5.5 z"
   id="path5" />
		<path
   class="st4"
   d="m 359.8,303.4 h 44.6 c 1.8,0 3.2,1.4 3.2,3.2 v 74.2 c 0,1.8 -1.4,3.2 -3.2,3.2 h -44.2 c -1.8,0 -3.2,-1.4 -3.2,-3.2 v -74.6 c 0,-1.5 1.2,-2.8 2.8,-2.8 z"
   id="path6" />
		<path
   class="st5"
   d="m 382.1,303.4 h 22.3 c 1.8,0 3.2,1.4 3.2,3.2 v 74.2 c 0,1.8 -1.4,3.2 -3.2,3.2 h -22.3 z"
   id="path7" />
		<rect
   x="374.5"
   y="387.60001"
   class="st6"
   width="15.6"
   height="1.9"
   id="rect7" />
	</g>
	<g
   id="Laptop">
		<path
   class="st7"
   d="m 87.6,231.8 h 222.2 c 3,0 5.5,2.5 5.5,5.5 V 379 H 82 V 237.3 c 0,-3.1 2.5,-5.5 5.6,-5.5 z"
   id="path8" />
		<path
   class="st8"
   d="m 93.9,244.1 h 209.6 c 1.7,0 3,1.4 3,3 V 379 H 90.8 V 247.1 c 0,-1.7 1.4,-3 3.1,-3 z"
   id="path9" />
		<path
   class="st9"
   d="m 198.7,244.1 h 104.8 c 1.7,0 3,1.4 3,3 V 373.9 H 198.7 Z"
   id="path10" />
		<path
   class="st7"
   d="m 65.4,377.6 h 266.4 c 4.3,0 7.8,3.5 7.8,7.8 v 0 c 0,4.3 -3.5,7.8 -7.8,7.8 H 65.4 c -4.3,0 -7.8,-3.5 -7.8,-7.8 v 0 c 0,-4.3 3.5,-7.8 7.8,-7.8 z"
   id="path11" />
		<path
   class="st10"
   d="m 68.2,373.9 h 260.9 c 1.6,0 2.8,1.3 2.8,2.8 v 0 c 0,1.5 -1.2,2.8 -2.8,2.8 H 68.2 c -1.5,0 -2.8,-1.3 -2.8,-2.8 v 0 c 0,-1.6 1.3,-2.8 2.8,-2.8 z"
   id="path12" />
		<path
   class="st11"
   d="m 198.7,241.5 c 1.9,0 3.5,-1.6 3.5,-3.5 0,-1.9 -1.6,-3.5 -3.5,-3.5 -1.9,0 -3.5,1.6 -3.5,3.5 0,1.9 1.5,3.5 3.5,3.5 z"
   id="path13" />
		<path
   class="st11"
   d="m 191.7,236.4 c 0.9,0 1.6,0.7 1.6,1.6 0,0.9 -0.7,1.6 -1.6,1.6 -0.9,0 -1.6,-0.7 -1.6,-1.6 -0.1,-0.9 0.7,-1.6 1.6,-1.6 z m 13.9,0 c 0.9,0 1.6,0.7 1.6,1.6 0,0.9 -0.7,1.6 -1.6,1.6 -0.9,0 -1.6,-0.7 -1.6,-1.6 0,-0.9 0.7,-1.6 1.6,-1.6 z"
   id="path14" />
	</g>
	<g
   id="Gear">
		<path
   class="st3"
   d="m 103.5,192.8 c 2.1,0.9 4.1,2 5.9,3.2 v 0 c 0.2,0.1 0.4,0.2 0.5,0.4 l 0.1,0.1 c 0.1,0.1 0.3,0.2 0.4,0.3 l 0.2,0.1 c 0.1,0.1 0.2,0.2 0.3,0.3 l 0.3,0.2 0.2,0.2 c 0.1,0.1 0.3,0.2 0.4,0.3 l 0.1,0.1 c 0.1,0.1 0.3,0.3 0.5,0.4 v 0.1 c 1.7,1.4 3.2,3.1 4.6,4.8 l 5.6,-3.2 5.1,8.9 -5.6,3.2 c 0.8,2.1 1.5,4.3 1.9,6.4 v 0.1 c 0,0.2 0.1,0.4 0.1,0.6 v 0.1 c 0,0.2 0.1,0.4 0.1,0.5 l 0.1,0.3 c 0,0.1 0,0.2 0,0.4 0,0.2 0.1,0.3 0.1,0.5 v 0.2 c 0,0.2 0.1,0.4 0.1,0.6 v 0.1 c 0,0.2 0.1,0.4 0.1,0.7 v 0 c 0.2,2.2 0.1,4.4 -0.1,6.7 l 6.2,1.7 -2.7,9.9 -6.2,-1.7 c -0.9,2.1 -2,4.1 -3.2,5.9 v 0 c -0.1,0.2 -0.2,0.4 -0.4,0.5 l -0.1,0.1 c -0.1,0.1 -0.2,0.3 -0.3,0.4 l -0.1,0.2 c -0.1,0.1 -0.1,0.2 -0.2,0.3 -0.1,0.1 -0.2,0.2 -0.3,0.3 l -0.1,0.2 c -0.1,0.1 -0.2,0.3 -0.4,0.4 l -0.1,0.1 c -0.1,0.1 -0.3,0.3 -0.4,0.5 v 0 c -1.4,1.7 -3.1,3.2 -4.9,4.6 l 3.2,5.6 -8.9,5.1 -3.2,-5.6 c -2.1,0.8 -4.3,1.4 -6.4,1.9 v 0 c -0.2,0.1 -0.4,0.1 -0.6,0.1 h -0.1 c -0.2,0 -0.4,0.1 -0.5,0.1 h -0.2 c -0.1,0 -0.3,0.1 -0.4,0.1 -0.1,0 -0.2,0 -0.3,0.1 -0.1,0 -0.2,0 -0.4,0 -0.1,0 -0.3,0 -0.4,0.1 h -0.2 c -0.2,0 -0.4,0.1 -0.6,0.1 h -0.1 c -2.2,0.2 -4.4,0.1 -6.7,-0.1 l -1.7,6.2 -9.9,-2.6 1.7,-6.2 c -2.1,-0.9 -4,-2 -5.9,-3.2 h -0.1 c -0.2,-0.1 -0.3,-0.2 -0.5,-0.4 L 69,254 c -0.1,-0.1 -0.3,-0.2 -0.4,-0.3 l -0.2,-0.1 c -0.1,-0.1 -0.2,-0.2 -0.4,-0.3 l -0.3,-0.2 -0.2,-0.1 c -0.1,-0.1 -0.3,-0.2 -0.4,-0.4 L 67,252.5 c -0.1,-0.1 -0.3,-0.3 -0.5,-0.4 L 66.4,252 c -1.7,-1.4 -3.2,-3.1 -4.6,-4.8 l -5.6,3.2 -5.1,-8.9 5.6,-3.2 c -0.9,-2.1 -1.5,-4.2 -1.9,-6.4 v -0.1 c -0.1,-0.2 -0.1,-0.4 -0.1,-0.6 v -0.1 c 0,-0.2 -0.1,-0.3 -0.1,-0.5 v -0.3 c 0,-0.1 0,-0.2 -0.1,-0.4 0,-0.2 0,-0.3 -0.1,-0.5 v -0.2 c 0,-0.2 -0.1,-0.4 -0.1,-0.6 v -0.1 c 0,-0.2 0,-0.4 -0.1,-0.7 v 0 c -0.1,-2.2 -0.1,-4.4 0.1,-6.7 l -6.2,-1.7 2.6,-9.9 6.2,1.7 c 0.9,-2.1 2,-4 3.2,-5.9 v 0 c 0.1,-0.1 0.2,-0.3 0.4,-0.5 l 0.1,-0.1 c 0.1,-0.1 0.2,-0.3 0.3,-0.4 l 0.2,-0.2 c 0.1,-0.1 0.1,-0.2 0.2,-0.3 0.1,-0.1 0.2,-0.2 0.3,-0.3 l 0.1,-0.2 c 0.1,-0.1 0.2,-0.3 0.3,-0.4 l 0.1,-0.1 c 0.1,-0.2 0.3,-0.4 0.4,-0.5 v 0 c 1.4,-1.7 3.1,-3.2 4.8,-4.6 l -3.2,-5.6 8.9,-5.1 3.2,5.6 c 2.1,-0.8 4.3,-1.4 6.4,-1.9 v 0 c 0.2,-0.1 0.4,-0.1 0.6,-0.1 h 0.1 c 0.2,0 0.4,-0.1 0.5,-0.1 H 84 c 0.1,0 0.3,0 0.4,-0.1 0.1,0 0.2,0 0.3,-0.1 0.1,0 0.2,0 0.3,0 0.1,0 0.3,0 0.5,0 h 0.2 c 0.2,0 0.4,0 0.6,-0.1 h 0.1 c 2.2,-0.2 4.4,-0.1 6.7,0.1 l 1.6,-6.2 9.9,2.6 z m -11.1,21.6 c 5.9,1.6 9.4,7.7 7.9,13.6 -1.6,5.9 -7.7,9.5 -13.6,7.9 -5.9,-1.6 -9.4,-7.7 -7.9,-13.6 1.6,-5.9 7.6,-9.4 13.6,-7.9 z m 2.2,-8.5 c 10.6,2.9 17,13.8 14.1,24.4 -2.9,10.6 -13.8,17 -24.4,14.1 C 73.7,241.5 67.4,230.6 70.2,220 73.1,209.4 84,203.1 94.6,205.9 Z"
   id="path15" />
		<path
   class="st12"
   d="m 171,198 c 0.9,0.4 1.8,0.9 2.7,1.5 v 0 c 0.1,0.1 0.2,0.1 0.2,0.1 l 0.1,0.1 c 0.1,0 0.1,0.1 0.2,0.1 l 0.1,0.1 c 0.1,0 0.1,0.1 0.1,0.1 l 0.1,0.1 0.1,0.1 c 0.1,0.1 0.1,0.1 0.2,0.1 v 0.1 c 0.1,0.1 0.1,0.1 0.2,0.2 v 0 c 0.8,0.7 1.5,1.4 2.1,2.2 l 2.6,-1.5 2.3,4.1 -2.5,1.5 c 0.4,1 0.6,1.9 0.9,2.9 v 0 c 0,0.1 0,0.2 0,0.3 v 0.1 c 0,0.1 0,0.2 0,0.2 v 0.1 c 0,0.1 0,0.1 0,0.1 0,0.1 0,0.1 0,0.2 v 0.1 c 0,0.1 0,0.2 0,0.3 v 0 c 0,0.1 0,0.2 0,0.3 v 0 c 0.1,1 0.1,2 -0.1,3 l 2.8,0.8 -1.2,4.5 -2.9,-0.8 c -0.4,0.9 -0.9,1.9 -1.5,2.7 v 0 c -0.1,0.1 -0.1,0.1 -0.2,0.2 v 0 c 0,0.1 -0.1,0.1 -0.1,0.2 l -0.1,0.1 c 0,0.1 -0.1,0.1 -0.1,0.1 0,0.1 -0.1,0.1 -0.1,0.1 l -0.1,0.1 c -0.1,0.1 -0.1,0.1 -0.1,0.2 h -0.1 c -0.1,0.1 -0.1,0.2 -0.2,0.2 v 0 c -0.7,0.8 -1.4,1.5 -2.2,2.1 l 1.5,2.6 -4.1,2.4 -1.5,-2.6 c -1,0.4 -1.9,0.7 -2.9,0.9 v 0 c -0.1,0 -0.2,0 -0.3,0.1 h -0.1 c -0.1,0 -0.2,0 -0.3,0 h -0.1 c -0.1,0 -0.1,0 -0.2,0 -0.1,0 -0.1,0 -0.1,0 -0.1,0 -0.1,0 -0.1,0 -0.1,0 -0.1,0 -0.2,0 h -0.1 c -0.1,0 -0.2,0 -0.3,0 v 0 c -1,0.1 -2,0.1 -3.1,-0.1 l -0.8,2.9 -4.5,-1.2 0.8,-2.8 c -1,-0.4 -1.9,-0.9 -2.7,-1.5 v 0 c -0.1,-0.1 -0.1,-0.1 -0.2,-0.1 l -0.1,-0.1 c -0.1,0 -0.1,-0.1 -0.2,-0.1 l -0.1,-0.1 c -0.1,0 -0.1,-0.1 -0.2,-0.1 l -0.1,-0.1 -0.1,-0.1 c -0.1,-0.1 -0.1,-0.1 -0.2,-0.1 l -0.1,-0.1 c -0.1,-0.1 -0.1,-0.1 -0.2,-0.2 v 0 c -0.8,-0.7 -1.5,-1.4 -2.1,-2.2 l -2.5,1.5 -2.4,-4.1 2.6,-1.5 c -0.4,-1 -0.7,-1.9 -0.9,-2.9 v 0 c 0,-0.1 0,-0.2 -0.1,-0.3 V 215 c 0,-0.1 0,-0.2 -0.1,-0.2 v 0.2 c 0,-0.1 0,-0.1 0,-0.1 0,-0.1 0,-0.1 0,-0.2 v -0.1 c 0,-0.1 0,-0.2 0,-0.3 v 0 c 0,-0.1 0,-0.2 0,-0.3 v 0 c -0.1,-1 -0.1,-2 0.1,-3.1 l -2.9,-0.8 1.2,-4.5 2.9,0.8 c 0.4,-0.9 0.9,-1.9 1.5,-2.7 v 0 c 0.1,-0.1 0.1,-0.1 0.2,-0.2 v 0 c 0.1,-0.1 0.1,-0.1 0.1,-0.2 l 0.1,-0.1 c 0,-0.1 0.1,-0.1 0.1,-0.1 0.1,-0.1 0.1,-0.1 0.1,-0.1 l 0.1,-0.1 c 0,-0.1 0.1,-0.1 0.1,-0.2 v 0 c 0.1,-0.1 0.1,-0.2 0.2,-0.2 v 0 c 0.6,-0.8 1.4,-1.5 2.2,-2.1 l -1.5,-2.6 4.1,-2.4 1.5,2.6 c 1,-0.4 1.9,-0.6 2.9,-0.9 v 0 c 0.1,0 0.2,0 0.3,-0.1 h 0.1 c 0.1,0 0.1,0 0.2,0 h 0.1 c 0.1,0 0.1,0 0.2,0 0,0 0.1,0 0.1,0 0,0 0.1,0 0.1,0 0.1,0 0.1,0 0.2,0 h 0.1 c 0.1,0 0.2,0 0.3,0 v 0 c 1,-0.1 2,-0.1 3.1,0.1 l 0.8,-2.8 4.5,1.2 z m -5.1,9.9 c 2.7,0.7 4.3,3.5 3.6,6.2 -0.7,2.7 -3.5,4.3 -6.2,3.6 -2.7,-0.7 -4.3,-3.5 -3.6,-6.2 0.7,-2.8 3.5,-4.4 6.2,-3.6 z M 167,204 c 4.9,1.3 7.7,6.3 6.4,11.1 -1.3,4.9 -6.3,7.7 -11.1,6.4 -4.9,-1.3 -7.7,-6.3 -6.4,-11.1 1.2,-4.8 6.2,-7.7 11.1,-6.4 z"
   id="path16" />
		<path
   class="st2"
   d="m 145.3,144.1 c 1.4,0.6 2.6,1.3 3.8,2.1 v 0 c 0.1,0.1 0.2,0.2 0.3,0.2 l 0.1,0.1 c 0.1,0.1 0.2,0.1 0.3,0.2 l 0.1,0.1 c 0.1,0.1 0.1,0.1 0.2,0.2 l 0.2,0.1 0.1,0.1 c 0.1,0.1 0.2,0.1 0.3,0.2 l 0.1,0.1 c 0.1,0.1 0.2,0.2 0.3,0.3 v 0 c 1.1,0.9 2.1,2 3,3.1 l 3.6,-2.1 3.3,5.7 -3.6,2.1 c 0.5,1.4 0.9,2.8 1.2,4.1 v 0.1 c 0,0.1 0.1,0.3 0.1,0.4 v 0.1 c 0,0.1 0,0.2 0.1,0.4 v 0.2 c 0,0.1 0,0.1 0,0.2 0,0.1 0,0.2 0,0.3 v 0.1 c 0,0.1 0,0.3 0,0.4 v 0.1 c 0,0.1 0,0.3 0,0.4 v 0 c 0.1,1.4 0.1,2.9 -0.1,4.3 l 4,1.1 -1.7,6.4 -4,-1.1 c -0.6,1.4 -1.3,2.6 -2.1,3.8 v 0 c -0.1,0.1 -0.2,0.2 -0.2,0.3 l -0.1,0.1 c -0.1,0.1 -0.1,0.2 -0.2,0.3 l -0.1,0.1 c -0.1,0.1 -0.1,0.1 -0.2,0.2 -0.1,0.1 -0.1,0.1 -0.1,0.2 l -0.1,0.1 c -0.1,0.1 -0.1,0.2 -0.2,0.3 l -0.1,0.1 c -0.1,0.1 -0.2,0.2 -0.3,0.3 v 0 c -0.9,1.1 -2,2.1 -3.1,3 l 2.1,3.6 -5.7,3.3 -2.1,-3.6 c -1.4,0.5 -2.8,0.9 -4.2,1.2 v 0 c -0.1,0 -0.3,0.1 -0.4,0.1 h -0.1 c -0.1,0 -0.2,0 -0.4,0.1 h -0.1 c -0.1,0 -0.2,0 -0.3,0.1 -0.1,0 -0.1,0 -0.2,0 -0.1,0 -0.1,0 -0.2,0 -0.1,0 -0.2,0 -0.3,0 h -0.1 c -0.1,0 -0.2,0 -0.4,0 v 0 c -1.4,0.1 -2.9,0.1 -4.3,-0.1 l -1.1,4 -6.4,-1.7 1.1,-4 c -1.4,-0.6 -2.6,-1.3 -3.8,-2.1 v 0 c -0.1,-0.1 -0.2,-0.1 -0.3,-0.2 h -0.1 c -0.1,-0.1 -0.2,-0.1 -0.3,-0.2 l -0.1,-0.1 c -0.1,0 -0.1,-0.1 -0.2,-0.1 l -0.2,-0.1 -0.1,-0.1 c -0.1,-0.1 -0.2,-0.1 -0.3,-0.2 l -0.1,-0.1 c -0.1,-0.1 -0.2,-0.2 -0.3,-0.3 v 0 c -1.1,-0.9 -2.1,-2 -3,-3.1 l -3.6,2.1 -3.3,-5.7 3.6,-2.1 c -0.5,-1.4 -0.9,-2.8 -1.2,-4.2 v 0 c 0,-0.1 -0.1,-0.3 -0.1,-0.4 v -0.1 c 0,-0.1 0,-0.2 -0.1,-0.4 v -0.2 c 0,-0.1 0,-0.1 0,-0.2 0,-0.1 0,-0.2 0,-0.3 v -0.1 c 0,-0.1 0,-0.3 0,-0.4 v 0 c 0,-0.1 0,-0.3 0,-0.4 v 0 c -0.1,-1.4 -0.1,-2.9 0.1,-4.3 l -4,-1.1 1.7,-6.4 4,1.1 c 0.6,-1.4 1.3,-2.6 2.1,-3.8 v 0 c 0.1,-0.1 0.1,-0.2 0.2,-0.3 l 0.1,-0.1 c 0.1,-0.1 0.1,-0.2 0.2,-0.3 l 0.1,-0.1 c 0,-0.1 0.1,-0.1 0.1,-0.2 0.1,-0.1 0.1,-0.1 0.2,-0.2 l 0.1,-0.1 c 0.1,-0.1 0.1,-0.2 0.2,-0.3 l 0.1,-0.1 c 0.1,-0.1 0.2,-0.2 0.3,-0.3 v 0 c 0.9,-1.1 2,-2.1 3.1,-3 l -2.1,-3.6 5.7,-3.3 2.1,3.6 c 1.4,-0.5 2.8,-0.9 4.2,-1.2 v 0 c 0.1,0 0.3,-0.1 0.4,-0.1 h 0.1 c 0.1,0 0.2,0 0.4,-0.1 h 0.1 c 0.1,0 0.2,0 0.3,0 0.1,0 0.1,0 0.2,0 0.1,0 0.1,0 0.2,0 0.1,0 0.2,0 0.3,0 h 0.1 c 0.1,0 0.3,0 0.4,0 v 0 c 1.4,-0.1 2.9,-0.1 4.3,0.1 l 1.1,-4.1 6.4,1.7 z m -7.2,14 c 3.8,1 6.1,5 5.1,8.8 -1,3.8 -5,6.1 -8.8,5.1 -3.8,-1 -6.1,-5 -5.1,-8.8 1,-3.8 4.9,-6.1 8.8,-5.1 z m 1.5,-5.5 c 6.9,1.8 11,8.9 9.1,15.8 -1.8,6.9 -8.9,11 -15.8,9.1 -6.9,-1.9 -11,-8.9 -9.1,-15.8 1.8,-6.9 8.9,-11 15.8,-9.1 z"
   id="path17" />
	</g>
	<g
   id="Cloud">
		<path
   class="st13"
   d="m 253.3,131.4 c 5.9,0 10.6,4.7 10.6,10.6 0,0.8 -0.1,1.5 -0.2,2.2 6.7,0 12.2,5.5 12.2,12.2 0,5.5 -3.6,10.1 -8.6,11.6 h -43.7 c -3.8,-2 -6.4,-5.5 -6.4,-9.5 0,-5.9 5.7,-10.8 12.9,-11.2 0.1,-5 4.1,-9.1 9.2,-9.1 1.4,0 2.7,0.3 3.9,0.8 1.2,-4.3 5.3,-7.6 10.1,-7.6 z"
   id="path18" />
		<path
   class="st13"
   d="m 303.5,225.2 c 8.2,0 14.9,6.7 14.9,14.9 0,1.1 -0.1,2.1 -0.3,3.1 9.5,0 17.2,7.7 17.2,17.2 0,7.7 -5.1,14.2 -12.1,16.4 h -61.7 c -5.4,-2.9 -9,-7.8 -9,-13.4 0,-8.4 8,-15.2 18.1,-15.9 0.1,-7.1 5.9,-12.9 13,-12.9 1.9,0 3.8,0.4 5.4,1.2 1.9,-6.1 7.7,-10.6 14.5,-10.6 z"
   id="path19" />
		<path
   class="st13"
   d="m 156.2,301.3 c 7.6,0 13.7,6.1 13.7,13.7 0,1 -0.1,1.9 -0.3,2.9 8.7,0 15.7,7 15.7,15.7 0,7.1 -4.6,13 -11,15 h -56.5 c -4.9,-2.6 -8.2,-7.1 -8.2,-12.2 0,-7.6 7.3,-13.9 16.6,-14.5 0.1,-6.5 5.4,-11.8 11.9,-11.8 1.8,0 3.5,0.4 5,1.1 1.6,-5.7 6.9,-9.9 13.1,-9.9 z"
   id="path20" />
	</g>
	<g
   id="Cable">
		<path
   class="st14"
   d="m 369.2,146.7 c 1.4,0 2.6,1.1 2.6,2.6 0,1.4 -1.1,2.6 -2.6,2.6 h -84.1 c -1.4,0 -2.6,-1.1 -2.6,-2.6 0,-1.4 1.2,-2.6 2.6,-2.6 z"
   id="path21" />
		<path
   class="st15"
   d="m 253.6,176.1 c 0,-1.4 1.1,-2.6 2.6,-2.6 1.4,0 2.6,1.1 2.6,2.6 v 69.3 c 0,1.4 -1.1,2.6 -2.6,2.6 -1.4,0 -2.6,-1.2 -2.6,-2.6 z"
   id="path22" />
		<path
   class="st16"
   d="m 291.9,289.4 c 0,-1.4 1.1,-2.6 2.6,-2.6 1.4,0 2.6,1.2 2.6,2.6 v 50.4 c 0,1.4 -1.1,2.6 -2.6,2.6 H 191.8 c -1.4,0 -2.6,-1.1 -2.6,-2.6 0,-1.4 1.2,-2.6 2.6,-2.6 h 100.1 z"
   id="path23" />
	</g>
</g></g></g></g>
</svg>
